{"title":"The Jungle Book 2016 1080p TC X264 Masteredition Hive-CM8","uid":14608872,"size":4267709834,"categoryP":"video","categoryS":"movies","magnet":"?xt=urn:btih:7f1dc19f8af477e4e5447e634155e999fc5b0cf5&amp;dn=The+Jungle+Book+2016+1080p+TC+X264+Masteredition+Hive-CM8&amp;tr=udp%3A%2F%2Ftracker.leechers-paradise.org%3A6969&amp;tr=udp%3A%2F%2Fzer0day.ch%3A1337&amp;tr=udp%3A%2F%2Fopen.demonii.com%3A1337&amp;tr=udp%3A%2F%2Ftracker.coppersurfer.tk%3A6969&amp;tr=udp%3A%2F%2Fexodus.desync.com%3A6969","seeders":8,"leechers":4,"uploader":"makintos13","files":3,"time":1463121745,"description":"The Jungle Book 2016 1080p TC X264 Masteredition Hive-CM8\r\n\r\nscreens:\r\n \nhttps://imgmak.com/T6T\r\n \nhttps://imgmak.com/T6a\r\n \nhttps://imgmak.com/T6p\r\n \nhttps://imgmak.com/T6R\r\n \nhttps://imgmak.com/T6b\r\n \nhttps://imgmak.com/T6x\r\n\r\nThe.Jungle.Book.2016.1080p.TC.X264.Masteredition.Hive-CM8\r\n\r\nThx Hive\r\n\r\nCM8 Doing It Right The First Time\r\n\r\nSources:\r\n\r\nVideo: 1080p Chinese Telecine\r\nAudio: English Line Stereo 2.0 (cpg/exclusive)\r\nthx\r\n\r\nNotes:\r\nThis is a special Encode which took me another 2 days of work, but the result is excellent, its a masterpiece from this source\r\nI have encoded it in 1080p only cause this movie needs quality. looks and sounds perfect a real cinemafeeling\r\nQuality is tested and optimized to look perfect even on a 75&quot; 4K TV\r\n\r\nEncode:\r\nLast Masteredition for now guys, was fun,the tag and the idea to maximize the enjoyment, hope you liked them\r\n\r\nThe Chinese telecine needed a lot of work,it was way too overbright but colours were ok on this\r\n\r\nSince daylight scenes were too bright i lowered them to normal levels, but that would have killed the darker scenes\r\nso i had no other choice than to split the movie into scenes again and treat every one as needed\r\nit was a pita, but totally worth it. nothing is cut from the movie btw\r\n\r\nLine Audio was nice, cpl spots needed resync to get all lipsync\r\n\r\ngot very nice and will do me till retail\r\nenjoy\r\n\r\nPS: maybe Xmen is next, we will find out soon!\r\nVideo: 1920x1028 @bitrate 5000-8000\r\nAudio: Line AC3 2.0 Stereo\r\nSample: yes included \nhttp://www.imdb.com/title/tt3040964/\r\n\r\nGeneral\r\nComplete name: The.Jungle.Book.2016.1080p.TC.X264.Masteredition.Hive-CM8.mkv\r\nFormat: Matroska\r\nFormat version: Version 2\r\nFile size: 3.86 GiB\r\nDuration: 1h 45mn\r\nOverall bit rate mode: Variable\r\nOverall bit rate: 5 221 Kbps\r\nEncoded date: UTC 2016-05-12 19:50:49\r\nWriting application: mkvmerge v5.6.0 ('Kenya Kane') built on May 27 2012 16:44:04\r\nWriting library: libebml v1.2.3 + libmatroska v1.3.0\r\n\r\nVideo\r\nID: 1\r\nFormat: AVC\r\nFormat/Info: Advanced Video Codec\r\nFormat profile:   \r\nFormat settings, CABAC: Yes\r\nFormat settings, ReFrames: 4 frames\r\nFormat settings, GOP: M=4, N=33\r\nMuxing mode: Header stripping\r\nCodec ID: V_MPEG4/ISO/AVC\r\nDuration: 1h 45mn\r\nBit rate mode: Variable\r\nBit rate: 4 861 Kbps\r\nMaximum bit rate: 8 000 Kbps\r\nWidth: 1 920 pixels\r\nHeight: 1 028 pixels\r\nDisplay aspect ratio: 1.85:1\r\nFrame rate mode: Constant\r\nFrame rate: 23.976 fps\r\nStandard: NTSC\r\nColor space: YUV\r\nChroma subsampling: 4:2:0\r\nBit depth: 8 bits\r\nScan type: Progressive\r\nBits/(Pixel*Frame): 0.103\r\nStream size: 3.60 GiB (93%)\r\nLanguage: English\r\nDefault: Yes\r\nForced: No\r\nColor primaries: BT.709\r\nTransfer characteristics: BT.709\r\nMatrix coefficients: BT.709\r\nColor range: Limited\r\n\r\nAudio\r\nID: 2\r\nFormat: AC-3\r\nFormat/Info: Audio Coding 3\r\nMode extension: CM (complete main)\r\nFormat settings, Endianness: Big\r\nMuxing mode: Header stripping\r\nCodec ID: A_AC3\r\nDuration: 1h 45mn\r\nBit rate mode: Constant\r\nBit rate: 256 Kbps\r\nChannel(s): 2 channels\r\nChannel positions: Front: L R\r\nSampling rate: 48.0 KHz\r\nBit depth: 16 bits\r\nCompression mode: Lossy\r\nStream size: 194 MiB (5%)\r\nLanguage: English\r\nDefault: Yes\r\nForced: No\r\n\r\nPlot\r\n\r\nAfter a threat from the tiger, Sher Khan, forces him to flee the jungle, a man-cub named, Mowgli, embarks on a journey of self discovery with the aid of the panther, Bagheera, and the free spirited bear, Baloo\r\n\r\nCast overview, first billed only:\r\n\r\nNeel Sethi ... Mowgli\r\nBill Murray ... Baloo (voice)\r\nBen Kingsley ... Bagheera (voice)\r\nIdris Elba ... Shere Khan (voice)\r\nLupita Nyong'o ... Raksha (voice)\r\nScarlett Johansson... Kaa (voice)\r\nGiancarlo Esposito... Akela (voice)\r\nChristopher Walken... King Louie (voice)\r\nGarry Shandling ... Ikki (voice)\r\nBrighton Rose ... Gray (voice)\r\nEmjay Anthony ... Young Wolf #1 (voice)\r\nMax Favreau ... Young Wolf #2 (voice)\r\nChloe Hechter ... Young Wolf #3 (voice)\r\nAsher Blinkoff ... Young Wolf #4 (voice)\r\nKnox Gagnon ... Young Wolf #5 (voice)\r\n\r\nLOOKING FOR ANYTHING YOU WANT TO LOOK AND SOUND BETTER\r\n\r\nCOME FIND US WE DONT BITE","torrent":{"xt":"urn:btih:7f1dc19f8af477e4e5447e634155e999fc5b0cf5","amp;dn":"The+Jungle+Book+2016+1080p+TC+X264+Masteredition+Hive-CM8","amp;tr":["udp%3A%2F%2Ftracker.leechers-paradise.org%3A6969","udp%3A%2F%2Fzer0day.ch%3A1337","udp%3A%2F%2Fopen.demonii.com%3A1337","udp%3A%2F%2Ftracker.coppersurfer.tk%3A6969","udp%3A%2F%2Fexodus.desync.com%3A6969"],"infoHash":"7f1dc19f8af477e4e5447e634155e999fc5b0cf5","infoHashBuffer":{"type":"Buffer","data":[127,29,193,159,138,244,119,228,229,68,126,99,65,85,233,153,252,91,12,245]},"announce":[],"urlList":[]}}